<svg width="20" height="92" viewBox="0 0 20 92" fill="none" xmlns="http://www.w3.org/2000/svg">
<path id="Vector" d="M13.4212 30.8333C10.0641 30.8333 7.34282 33.5492 7.34282 36.8997V30.9013C7.34282 27.5127 4.59003 24.7653 1.19471 24.7653C-2.20062 24.7653 -4.95341 27.5127 -4.95341 30.9013V24.7653C-4.95341 21.4149 -7.67465 18.699 -11.0318 18.699C-14.3889 18.699 -17.1102 21.4149 -17.1102 24.7653V6.55308C-17.1102 3.20922 -19.8264 0.5 -23.1753 0.5C-26.5258 0.5 -29.2404 3.21088 -29.2404 6.55308V55.0175L-36.72 47.5526C-39.1856 45.092 -43.1836 45.092 -45.6508 47.5526C-48.1164 50.0133 -48.1164 54.0034 -45.6508 56.4657L-28.2093 73.8727C-25.3154 84.0467 -15.938 91.5 -4.81561 91.5C6.9294 91.5 16.7302 83.1884 19.0031 72.1378H19.4996V36.8997C19.4996 33.5492 16.7783 30.8333 13.4212 30.8333Z" fill="#7DB233"/>
</svg>
