<svg width="27" height="65" viewBox="0 0 27 65" fill="none" xmlns="http://www.w3.org/2000/svg">
<g id="&#240;&#159;&#166;&#134; icon &#34;menu icon&#34;">
<g id="Group">
<path id="Vector" d="M14.625 54.3018L14.625 10.6977C14.625 9.27669 14.1465 8.12476 13.5562 8.12476L13.4437 8.12476C12.8535 8.12476 12.375 9.27669 12.375 10.6977L12.375 54.3018C12.375 55.7228 12.8535 56.8748 13.4437 56.8748L13.5562 56.8748C14.1465 56.8748 14.625 55.7228 14.625 54.3018Z" fill="white"/>
<path id="Vector_2" d="M8.99997 54.3018L8.99997 10.6977C8.99997 9.27669 8.52147 8.12476 7.93122 8.12476L7.81872 8.12476C7.22847 8.12476 6.74997 9.27669 6.74997 10.6977L6.74997 54.3018C6.74997 55.7228 7.22846 56.8748 7.81872 56.8748L7.93122 56.8748C8.52147 56.8748 8.99997 55.7228 8.99997 54.3018Z" fill="white"/>
<path id="Vector_3" d="M20.25 54.3018L20.25 10.6977C20.25 9.27669 19.7715 8.12476 19.1812 8.12476L19.0687 8.12476C18.4784 8.12476 18 9.27669 18 10.6977L18 54.3018C18 55.7228 18.4784 56.8748 19.0687 56.8748L19.1812 56.8748C19.7715 56.8748 20.25 55.7228 20.25 54.3018Z" fill="white"/>
</g>
</g>
</svg>
