<svg width="30" height="28" viewBox="0 0 30 28" fill="none" xmlns="http://www.w3.org/2000/svg">
<g id="Capa 1">
<g id="Group">
<path id="Vector" d="M28.6425 22.3879C28.3439 16.6001 24.4418 11.7651 19.1378 10.0818C18.9527 7.95678 17.1732 6.28833 15.0012 6.28833C12.8293 6.28833 11.0473 7.95678 10.8647 10.0818C5.56067 11.7651 1.65858 16.6001 1.35993 22.3879H0V27.5981H30V22.3879H28.6425Z" fill="white"/>
<path id="Vector_2" d="M7.46306 7.11026C7.584 7.24601 7.75183 7.31265 7.92213 7.31265C8.07022 7.31265 8.2183 7.26082 8.33431 7.15469C8.58605 6.92515 8.6058 6.53519 8.37873 6.28344C7.94681 5.80709 7.71481 5.3184 7.68519 4.83465C7.66051 4.44469 7.77651 4.16086 7.93447 3.76596C8.08996 3.3834 8.26273 2.94901 8.34171 2.33938C8.44784 1.51256 8.32937 0.641317 7.9863 -0.244738C7.8629 -0.563125 7.50502 -0.721085 7.1891 -0.597679C6.87071 -0.474273 6.71275 -0.118864 6.83369 0.199524C7.10025 0.893065 7.1965 1.56193 7.11505 2.18389C7.05829 2.63556 6.92501 2.96135 6.78679 3.30689C6.60169 3.76843 6.40917 4.24477 6.45113 4.91116C6.49802 5.68122 6.83863 6.42165 7.46059 7.11026H7.46306Z" fill="white"/>
<path id="Vector_3" d="M14.8459 3.74857C14.9668 3.88432 15.1346 3.95096 15.3049 3.95096C15.453 3.95096 15.6011 3.89913 15.7171 3.793C15.9689 3.56346 15.9886 3.1735 15.7615 2.92175C15.3296 2.4454 15.0976 1.95671 15.068 1.47543C15.0433 1.08547 15.1593 0.799167 15.3173 0.406735C15.4703 0.0241766 15.6455 -0.410213 15.7245 -1.01984C15.8307 -1.84666 15.7122 -2.7179 15.3691 -3.60396C15.2457 -3.92235 14.8903 -4.08031 14.5719 -3.95937C14.2535 -3.83596 14.0956 -3.48055 14.2165 -3.16217C14.4831 -2.46616 14.5793 -1.79976 14.4979 -1.1778C14.4411 -0.726132 14.3078 -0.40034 14.1696 -0.0548031C13.9845 0.406735 13.792 0.883082 13.8339 1.55194C13.8808 2.322 14.2214 3.06243 14.8434 3.75104L14.8459 3.74857Z" fill="white"/>
<path id="Vector_4" d="M22.4748 8.31946C22.5957 8.45521 22.7635 8.52185 22.9338 8.52185C23.0819 8.52185 23.23 8.47002 23.346 8.36389C23.5978 8.13435 23.6175 7.74439 23.3905 7.49264C22.9585 7.01629 22.7265 6.52761 22.6969 6.04632C22.6722 5.65636 22.7882 5.37006 22.9462 4.97763C23.1017 4.59507 23.2744 4.16068 23.3534 3.55105C23.4596 2.72423 23.3411 1.85299 22.998 0.966932C22.8746 0.648544 22.5192 0.490585 22.2008 0.613991C21.8824 0.737397 21.7245 1.09281 21.8454 1.41119C22.112 2.10474 22.2082 2.7736 22.1268 3.39556C22.07 3.84723 21.9367 4.17302 21.7985 4.51856C21.6134 4.98009 21.4209 5.45644 21.4628 6.1253C21.5097 6.89536 21.8503 7.63579 22.4723 8.3244L22.4748 8.31946Z" fill="white"/>
</g>
</g>
</svg>
