<svg width="15" height="10" viewBox="0 0 15 10" fill="none" xmlns="http://www.w3.org/2000/svg">
<g id="Group 91">
<path id="Vector" d="M7.34826 0C7.52545 0.0102347 7.70263 0.0204693 7.87982 0.0316344C8.35084 0.061408 8.8174 0.127468 9.27863 0.230745C9.95443 0.382404 10.6062 0.607567 11.2357 0.905303C12.1403 1.33237 12.9702 1.88318 13.7154 2.5689C13.8775 2.71777 14.0315 2.87594 14.1891 3.02946C14.1945 3.03504 14.198 3.04249 14.1998 3.04528C13.8962 3.36348 13.5935 3.67983 13.2881 3.99989C11.5945 2.29629 9.58047 1.37517 7.21292 1.37145C4.84359 1.36679 2.82596 2.2814 1.11552 3.98873C1.09949 3.97291 1.07901 3.9543 1.05942 3.93383C0.786073 3.64912 0.513613 3.36348 0.240263 3.07784C0.227797 3.06482 0.213551 3.05458 0.200195 3.04249C0.200195 3.0369 0.200195 3.03225 0.200195 3.02667C0.266084 2.96154 0.332864 2.89641 0.398753 2.83128C1.19654 2.04879 2.09228 1.41704 3.08774 0.939728C3.89977 0.549881 4.74386 0.269823 5.62802 0.134912C6.02603 0.0744339 6.42937 0.0530342 6.83094 0.0148868C6.90128 0.00837382 6.97251 0.00465212 7.04285 0C7.14436 0 7.24586 0 7.34737 0H7.34826Z" fill="white"/>
<path id="Vector_2" d="M1.70016 4.55052C4.64416 1.74832 9.44349 1.87944 12.1999 4.56926C11.8779 4.87919 11.5559 5.18913 11.2339 5.49992C10.0388 4.39811 8.61369 3.82336 6.95228 3.8174C5.28816 3.81144 3.86577 4.39215 2.67969 5.47523C2.35318 5.16784 2.02667 4.85961 1.70016 4.55052Z" fill="white"/>
<path id="Vector_3" d="M9.33819 7.49969C8.03997 6.01324 5.85652 6.02111 4.55655 7.49575C4.27077 7.17287 3.98586 6.84998 3.70007 6.5271C5.3259 4.62621 8.26651 4.35944 10.1999 6.5271C9.91325 6.85097 9.62572 7.17582 9.33819 7.49969Z" fill="white"/>
<path id="Vector_4" d="M6.95653 9.9997C6.37138 9.53051 5.78623 9.0605 5.20007 8.59049C6.03929 7.8555 7.67772 7.75016 8.69998 8.59536C8.11883 9.06374 7.53668 9.53213 6.95653 9.9997Z" fill="white"/>
</g>
</svg>
