<svg width="32" height="21" viewBox="0 0 32 21" fill="none" xmlns="http://www.w3.org/2000/svg">
<g id="Group">
<path id="Vector" d="M29.4119 8.87939H1.77896C0.878445 8.87939 0.148438 9.6094 0.148438 10.5099V10.6815C0.148438 11.5821 0.878445 12.3121 1.77896 12.3121H29.4119C30.3125 12.3121 31.0425 11.5821 31.0425 10.6815V10.5099C31.0425 9.6094 30.3125 8.87939 29.4119 8.87939Z" fill="white"/>
<path id="Vector_2" d="M29.4119 17.4614H1.77896C0.878445 17.4614 0.148438 18.1914 0.148438 19.0919V19.2636C0.148438 20.1641 0.878445 20.8941 1.77896 20.8941H29.4119C30.3125 20.8941 31.0425 20.1641 31.0425 19.2636V19.0919C31.0425 18.1914 30.3125 17.4614 29.4119 17.4614Z" fill="white"/>
<path id="Vector_3" d="M29.4119 0.297852H1.77896C0.878445 0.297852 0.148438 1.02786 0.148438 1.92837V2.1C0.148438 3.00051 0.878445 3.73052 1.77896 3.73052H29.4119C30.3125 3.73052 31.0425 3.00051 31.0425 2.1V1.92837C31.0425 1.02786 30.3125 0.297852 29.4119 0.297852Z" fill="white"/>
</g>
</svg>
