<svg width="80" height="87" viewBox="0 0 80 87" fill="none" xmlns="http://www.w3.org/2000/svg">
<path id="Vector" d="M79.1408 43.6338L75.7588 36.5133L70.2365 24.8864C65.4618 10.7099 52.073 0.500977 36.3035 0.500977C16.5305 0.500977 0.5 16.5519 0.5 36.3503C0.5 49.1353 7.18632 60.3556 17.2458 66.7026V86.501H49.449V70.3781H58.9646C62.6017 70.3781 65.5512 67.4262 65.5512 63.783V57.0294C67.3207 54.5253 68.7764 51.7833 69.8641 48.8608H75.8424C78.5266 48.8608 80.2931 46.0602 79.1408 43.6338ZM38.7341 32.6117V48.8814H28.0002V32.6117H22.7374L28.0428 23.4097L33.3481 14.2078L38.6535 23.4097L43.9589 32.6117H38.7341Z" fill="#7DB233"/>
</svg>
