<svg width="43" height="55" viewBox="0 0 43 55" fill="none" xmlns="http://www.w3.org/2000/svg">
<g id="Group 94">
<path id="Vector" d="M8.1613 21.9937H2.47124V32.7701C2.47124 32.8673 2.46536 32.9631 2.46094 33.0603H8.1613V54.4998H16.5447V0.499756H8.1613V21.9937Z" fill="#7DB233"/>
<path id="Vector_2" d="M27.4684 5.8313H18.6992V49.1668H27.4684V5.8313Z" fill="#7DB233"/>
<path id="Vector_3" d="M39.4578 21.9392H38.0073V11.3027H30.0215V43.6954H38.0073V33.0589H39.4578C41.138 33.0589 42.5016 31.6962 42.5016 30.0153V24.9828C42.5016 23.3019 41.1395 21.9392 39.4578 21.9392Z" fill="#7DB233"/>
<path id="Vector_4" d="M-0.658447 16.7124C-1.6657 16.7124 -2.51685 17.3753 -2.80253 18.2887C-3.08674 17.3753 -3.93936 16.7124 -4.94661 16.7124C-5.80218 16.7124 -6.5473 17.1927 -6.92576 17.8969C-7.30421 17.1912 -8.04787 16.7124 -8.90491 16.7124C-10.1448 16.7124 -11.1506 17.7186 -11.1506 18.959C-11.1506 17.7186 -12.1564 16.7124 -13.3963 16.7124C-14.6362 16.7124 -15.642 17.7186 -15.642 18.959V26.8215L-15.8555 26.4517C-16.471 25.3866 -17.8317 25.0212 -18.8979 25.6355C-19.9625 26.2513 -20.3277 27.6126 -19.7137 28.6792L-16.8731 33.6011C-16.5697 36.1984 -14.9351 38.4406 -12.5923 39.765V52.6687H-1.81001V39.158C0.260443 37.6333 1.58282 35.3189 1.58282 32.726C1.58282 32.4432 1.56662 32.1633 1.5357 31.8878H1.58282V18.9605C1.58282 17.7201 0.577049 16.7139 -0.662865 16.7139L-0.658447 16.7124Z" fill="#7DB233"/>
</g>
</svg>
