<svg width="42" height="42" viewBox="0 0 42 42" fill="none" xmlns="http://www.w3.org/2000/svg">
<g id="&#240;&#159;&#166;&#134; icon &#34;menu icon&#34;">
<g id="Group">
<path id="Vector" d="M34.4125 18.8799H6.77952C5.87901 18.8799 5.14901 19.6099 5.14901 20.5104V20.682C5.14901 21.5825 5.87901 22.3126 6.77952 22.3126H34.4125C35.313 22.3126 36.043 21.5825 36.043 20.682V20.5104C36.043 19.6099 35.313 18.8799 34.4125 18.8799Z" fill="white"/>
<path id="Vector_2" d="M34.4125 27.4614H6.77952C5.87901 27.4614 5.14901 28.1914 5.14901 29.0919V29.2636C5.14901 30.1641 5.87901 30.8941 6.77952 30.8941H34.4125C35.313 30.8941 36.043 30.1641 36.043 29.2636V29.0919C36.043 28.1914 35.313 27.4614 34.4125 27.4614Z" fill="white"/>
<path id="Vector_3" d="M34.4125 10.2981H6.77952C5.87901 10.2981 5.149 11.0281 5.149 11.9286V12.1002C5.149 13.0008 5.87901 13.7308 6.77952 13.7308H34.4125C35.313 13.7308 36.043 13.0008 36.043 12.1002V11.9286C36.043 11.0281 35.313 10.2981 34.4125 10.2981Z" fill="white"/>
</g>
</g>
</svg>
