<svg width="15" height="10" viewBox="0 0 15 10" fill="none" xmlns="http://www.w3.org/2000/svg">
<g id="Group 91">
<path id="Vector" d="M7.34728 0C7.52447 0.0102347 7.70166 0.0204693 7.87885 0.0316344C8.34986 0.061408 8.81643 0.127468 9.27765 0.230745C9.95346 0.382404 10.6052 0.607567 11.2347 0.905303C12.1394 1.33237 12.9692 1.88318 13.7145 2.5689C13.8765 2.71777 14.0306 2.87594 14.1882 3.02946C14.1935 3.03504 14.1971 3.04249 14.1988 3.04528C13.8952 3.36348 13.5925 3.67983 13.2871 3.99989C11.5936 2.29629 9.57949 1.37517 7.21194 1.37145C4.84261 1.36679 2.82498 2.2814 1.11454 3.98873C1.09851 3.97291 1.07804 3.9543 1.05845 3.93383C0.785096 3.64912 0.512637 3.36348 0.239286 3.07784C0.226821 3.06482 0.212575 3.05458 0.199219 3.04249C0.199219 3.0369 0.199219 3.03225 0.199219 3.02667C0.265108 2.96154 0.331887 2.89641 0.397776 2.83128C1.19557 2.04879 2.0913 1.41704 3.08676 0.939728C3.8988 0.549881 4.74289 0.269823 5.62705 0.134912C6.02505 0.0744339 6.4284 0.0530342 6.82996 0.0148868C6.90031 0.00837382 6.97154 0.00465212 7.04188 0C7.14338 0 7.24489 0 7.34639 0H7.34728Z" fill="white"/>
<path id="Vector_2" d="M1.69922 4.55052C4.64322 1.74832 9.44255 1.87944 12.1989 4.56926C11.8769 4.87919 11.5549 5.18913 11.2329 5.49992C10.0378 4.39811 8.61274 3.82336 6.95133 3.8174C5.28722 3.81144 3.86483 4.39215 2.67875 5.47523C2.35224 5.16784 2.02573 4.85961 1.69922 4.55052Z" fill="white"/>
<path id="Vector_3" d="M9.33734 7.49993C8.03912 6.01348 5.85566 6.02136 4.5557 7.496C4.26991 7.17311 3.985 6.85023 3.69922 6.52734C5.32505 4.62646 8.26565 4.35968 10.199 6.52734C9.91239 6.85121 9.62487 7.17606 9.33734 7.49993Z" fill="white"/>
<path id="Vector_4" d="M6.95567 9.99946C6.37052 9.53026 5.78537 9.06026 5.19922 8.59025C6.03844 7.85526 7.67686 7.74991 8.69913 8.59511C8.11797 9.0635 7.53582 9.53188 6.95567 9.99946Z" fill="white"/>
</g>
</svg>
