<svg width="301" height="156" viewBox="0 0 301 156" fill="none" xmlns="http://www.w3.org/2000/svg">
<g clip-path="url(#clip0_281_2094)">
<path d="M2.82 70.8701H14.17V85.0401H2.82C1.26 85.0401 0 83.7801 0 82.2201V73.6901C0 72.1301 1.26 70.8701 2.82 70.8701Z" fill="#6C757D"/>
<path d="M58.6413 113.38H56.5312V41.25H67.9113C71.9113 41.25 75.3312 42.98 78.1712 46.44C81.0112 49.9 82.4313 54.06 82.4313 58.93V69.72C82.4313 74.2 80.8613 78.1 78.4113 81.42C80.8613 84.77 82.4313 88.67 82.4313 93.12V106.73C82.3413 109.64 82.6313 111.85 83.3213 113.37H73.5713C73.1613 112.54 72.9113 111.52 72.8213 110.3C72.7313 109.08 72.6713 107.89 72.6513 106.73V93.12C72.6513 91.52 72.1913 90.16 71.2513 89.05C70.3213 87.92 69.2113 87.35 67.9113 87.35H66.2712V113.37H58.6413V113.38ZM66.2712 75.49H68.2513C69.5413 75.49 70.6612 74.92 71.5912 73.79C72.5212 72.66 72.9912 71.3 72.9912 69.72V58.93C72.9912 57.33 72.5312 55.97 71.5912 54.86C70.6612 53.73 69.5513 53.16 68.2513 53.16H66.2712V75.49Z" fill="#E52421"/>
<path d="M108.971 41.25H111.121V53.16H97.5312V71.38H105.611V83.25H97.5312V101.51H111.121V113.38H87.7812V41.25H108.971Z" fill="#E52421"/>
<path d="M125.639 102.22C125.039 105.94 124.419 109.65 123.829 113.38H113.809L123.999 41.25H136.779L146.969 113.47H136.949C136.359 109.73 135.739 105.95 135.139 102.22H125.629H125.639ZM130.379 56.48L127.069 90.85H133.709L130.369 56.48H130.379Z" fill="#E52421"/>
<path d="M158.038 41.25H160.148V101.51H173.298V113.38H150.398V41.25H158.028H158.038Z" fill="#E52421"/>
<path d="M206.929 41.25C210.519 41.25 213.609 42.83 216.199 45.98C218.769 49.11 220.049 52.87 220.049 57.27V61.79H210.609V57.27C210.609 55.04 208.749 53.16 206.929 53.16C205.109 53.16 203.559 55.02 203.559 57.27V97.4C203.559 99.65 205.109 101.51 206.929 101.51C208.749 101.51 210.949 99.63 210.949 97.4V85.36H206.079V74.32H220.049V97.4C220.049 106.1 214.089 113.38 206.929 113.38C203.269 113.38 200.179 111.82 197.659 108.69C195.089 105.56 193.809 101.8 193.809 97.4V57.27C193.809 48.52 199.759 41.25 206.929 41.25Z" fill="#E52421"/>
<path d="M233.128 41.29C234.188 49.05 236.367 61.41 237.697 67.89C239.247 58.94 241.137 47.89 242.227 41.29H252.417C251.027 47.36 242.568 84.41 242.568 84.41V113.38H232.787V84.83C227.917 65.16 225.188 50.55 222.938 41.29H233.128Z" fill="#E52421"/>
<path d="M255.829 41.25H271.739L278.009 89.73L284.249 41.25H300.159V113.38H290.069V61.75L282.739 113.38H273.569L265.899 61.75V113.38C266.679 113.38 258.769 113.38 255.809 113.38V41.25H255.829Z" fill="#E52421"/>
<path d="M72.3711 0V38.42H84.9411H99.2111V0H72.3711Z" fill="#4C4B4B"/>
<path d="M84.9411 116.22H72.3711V155.9H99.2111V116.22H87.6911H84.9411Z" fill="#4C4B4B"/>
<path d="M57.1334 38.4201H67.9134H69.3734V28.3501H44.0234V125.34H69.3734V116.22H69.1134H54.4334H53.7034V38.4201H57.1334Z" fill="#4C4B4B"/>
<path d="M41.0219 42.52H14.1719V111.66H41.0219V42.52Z" fill="#4C4B4B"/>
<path d="M109.22 124.44V140.44H106.32V124.44H109.22Z" fill="#4C4B4B"/>
<path d="M112.401 140.44V128.44H115.101V130.48H115.241C115.491 129.8 115.901 129.26 116.481 128.87C117.061 128.48 117.751 128.28 118.551 128.28C119.351 128.28 120.041 128.48 120.601 128.87C121.161 129.26 121.561 129.8 121.791 130.48H121.911C122.181 129.81 122.621 129.28 123.261 128.88C123.901 128.48 124.641 128.28 125.511 128.28C126.611 128.28 127.511 128.63 128.211 129.33C128.911 130.03 129.261 131.05 129.261 132.38V140.43H126.421V132.81C126.421 132.07 126.221 131.52 125.831 131.17C125.431 130.82 124.951 130.65 124.381 130.65C123.701 130.65 123.171 130.86 122.781 131.29C122.401 131.71 122.211 132.27 122.211 132.94V140.42H119.441V132.69C119.441 132.07 119.251 131.58 118.881 131.21C118.511 130.84 118.021 130.66 117.421 130.66C116.821 130.66 116.291 130.89 115.861 131.34C115.431 131.8 115.221 132.39 115.221 133.13V140.43H112.391L112.401 140.44Z" fill="#4C4B4B"/>
<path d="M132.301 144.94V128.44H135.081V130.42H135.241C135.391 130.13 135.591 129.82 135.851 129.49C136.111 129.16 136.471 128.88 136.931 128.64C137.391 128.4 137.971 128.28 138.671 128.28C139.601 128.28 140.431 128.52 141.181 128.99C141.931 129.46 142.521 130.16 142.961 131.08C143.401 132 143.621 133.12 143.621 134.46C143.621 135.8 143.401 136.9 142.971 137.82C142.541 138.74 141.951 139.44 141.201 139.93C140.451 140.42 139.611 140.66 138.671 140.66C137.981 140.66 137.411 140.55 136.961 140.32C136.511 140.09 136.141 139.81 135.871 139.49C135.601 139.16 135.381 138.86 135.231 138.56H135.111V144.95H132.281L132.301 144.94ZM135.071 134.44C135.071 135.6 135.321 136.54 135.801 137.26C136.291 137.98 136.981 138.33 137.891 138.33C138.801 138.33 139.531 137.96 140.011 137.23C140.491 136.5 140.741 135.57 140.741 134.44C140.741 133.31 140.501 132.4 140.021 131.68C139.541 130.96 138.831 130.6 137.891 130.6C136.951 130.6 136.281 130.95 135.801 131.64C135.321 132.33 135.071 133.27 135.071 134.43V134.44Z" fill="#4C4B4B"/>
<path d="M153.851 135.4V128.45H156.681V140.45H153.941V138.32H153.821C153.551 138.99 153.111 139.54 152.491 139.97C151.871 140.4 151.111 140.61 150.211 140.61C149.031 140.61 148.071 140.22 147.331 139.43C146.581 138.65 146.211 137.53 146.211 136.09V128.45H149.041V135.65C149.041 136.41 149.251 137.01 149.661 137.46C150.081 137.91 150.621 138.13 151.301 138.13C151.721 138.13 152.121 138.03 152.511 137.83C152.901 137.63 153.221 137.32 153.471 136.92C153.721 136.52 153.851 136.01 153.851 135.4Z" fill="#4C4B4B"/>
<path d="M162.572 124.44V140.44H159.742V124.44H162.572Z" fill="#4C4B4B"/>
<path d="M175.112 131.62L172.532 131.9C172.422 131.5 172.192 131.16 171.832 130.85C171.472 130.55 170.972 130.4 170.322 130.4C169.732 130.4 169.242 130.53 168.842 130.78C168.442 131.04 168.252 131.37 168.252 131.77C168.252 132.12 168.372 132.4 168.642 132.63C168.902 132.85 169.342 133.03 169.952 133.17L172.002 133.61C174.252 134.1 175.372 135.18 175.382 136.86C175.382 137.62 175.162 138.28 174.722 138.86C174.282 139.44 173.682 139.88 172.912 140.21C172.142 140.54 171.252 140.69 170.252 140.69C168.782 140.69 167.592 140.38 166.702 139.76C165.812 139.14 165.282 138.28 165.102 137.18L167.862 136.91C168.112 138 168.902 138.55 170.242 138.55C170.912 138.55 171.452 138.41 171.862 138.14C172.272 137.87 172.472 137.52 172.472 137.11C172.472 136.44 171.932 135.98 170.852 135.74L168.802 135.31C167.652 135.07 166.802 134.67 166.252 134.1C165.702 133.53 165.422 132.81 165.432 131.93C165.432 131.19 165.632 130.55 166.042 130C166.452 129.46 167.012 129.03 167.742 128.73C168.472 128.43 169.322 128.28 170.282 128.28C171.692 128.28 172.792 128.58 173.602 129.18C174.412 129.78 174.912 130.59 175.102 131.61L175.112 131.62Z" fill="#4C4B4B"/>
<path d="M181.309 140.69C180.159 140.69 179.209 140.38 178.439 139.77C177.669 139.16 177.289 138.26 177.289 137.08C177.289 136.18 177.509 135.48 177.939 134.98C178.369 134.48 178.939 134.12 179.639 133.89C180.339 133.66 181.069 133.51 181.849 133.43C182.909 133.32 183.669 133.21 184.129 133.11C184.589 133.01 184.819 132.76 184.819 132.35V132.3C184.819 131.71 184.649 131.26 184.299 130.93C183.949 130.61 183.449 130.45 182.789 130.45C182.099 130.45 181.549 130.6 181.149 130.9C180.749 131.2 180.469 131.56 180.329 131.97L177.689 131.59C177.999 130.5 178.609 129.67 179.519 129.11C180.429 128.55 181.509 128.27 182.769 128.27C183.339 128.27 183.919 128.34 184.489 128.47C185.059 128.61 185.589 128.83 186.059 129.14C186.529 129.45 186.919 129.87 187.209 130.41C187.499 130.95 187.639 131.6 187.639 132.39V140.42H184.919V138.77H184.829C184.579 139.28 184.159 139.72 183.579 140.09C182.999 140.46 182.249 140.66 181.299 140.66L181.309 140.69ZM182.039 138.61C182.889 138.61 183.569 138.37 184.069 137.88C184.569 137.39 184.819 136.81 184.819 136.15V134.74C184.699 134.84 184.479 134.93 184.159 135C183.839 135.08 183.499 135.14 183.139 135.19C182.779 135.24 182.479 135.29 182.229 135.32C181.599 135.41 181.069 135.58 180.649 135.84C180.229 136.1 180.019 136.5 180.019 137.04C180.019 137.58 180.209 137.95 180.589 138.22C180.969 138.49 181.449 138.62 182.039 138.62V138.61Z" fill="#4C4B4B"/>
<path d="M202.259 128.44V130.63H199.889V136.83C199.889 137.4 200.009 137.77 200.269 137.95C200.529 138.13 200.819 138.22 201.179 138.22C201.359 138.22 201.519 138.21 201.669 138.18C201.819 138.15 201.929 138.13 202.009 138.11L202.489 140.32C202.339 140.37 202.119 140.43 201.849 140.49C201.579 140.55 201.229 140.59 200.829 140.6C199.769 140.63 198.879 140.37 198.149 139.82C197.429 139.27 197.069 138.43 197.079 137.3V130.63H195.379V128.44H197.079V125.56H199.909V128.44H202.279H202.259Z" fill="#4C4B4B"/>
<path d="M212.429 135.4V128.45H215.259V140.45H212.519V138.32H212.399C212.129 138.99 211.689 139.54 211.069 139.97C210.449 140.4 209.689 140.61 208.789 140.61C207.609 140.61 206.649 140.22 205.909 139.43C205.159 138.65 204.789 137.53 204.789 136.09V128.45H207.619V135.65C207.619 136.41 207.829 137.01 208.239 137.46C208.659 137.91 209.199 138.13 209.879 138.13C210.299 138.13 210.699 138.03 211.089 137.83C211.479 137.63 211.799 137.32 212.049 136.92C212.299 136.52 212.429 136.01 212.429 135.4Z" fill="#4C4B4B"/>
<path d="M229.172 140.68C227.982 140.68 226.952 140.42 226.092 139.89C225.232 139.36 224.572 138.64 224.112 137.7C223.652 136.77 223.422 135.7 223.422 134.49C223.422 133.28 223.652 132.19 224.122 131.26C224.592 130.33 225.252 129.6 226.112 129.08C226.972 128.55 227.982 128.29 229.152 128.29C230.132 128.29 230.992 128.47 231.742 128.83C232.492 129.19 233.092 129.69 233.542 130.33C233.992 130.98 234.242 131.73 234.312 132.6H231.612C231.502 132.02 231.242 131.54 230.832 131.15C230.422 130.76 229.882 130.57 229.192 130.57C228.322 130.57 227.622 130.91 227.082 131.6C226.552 132.29 226.282 133.23 226.282 134.45C226.282 135.67 226.542 136.64 227.072 137.33C227.602 138.03 228.302 138.38 229.182 138.38C229.802 138.38 230.332 138.2 230.762 137.85C231.192 137.5 231.472 137 231.592 136.35H234.292C234.222 137.2 233.972 137.95 233.542 138.6C233.112 139.25 232.522 139.76 231.772 140.13C231.022 140.5 230.152 140.68 229.152 140.68H229.172Z" fill="#4C4B4B"/>
<path d="M240.239 140.69C239.089 140.69 238.139 140.38 237.369 139.77C236.599 139.16 236.219 138.26 236.219 137.08C236.219 136.18 236.439 135.48 236.869 134.98C237.299 134.48 237.869 134.12 238.569 133.89C239.269 133.66 239.999 133.51 240.779 133.43C241.839 133.32 242.599 133.21 243.059 133.11C243.519 133.01 243.749 132.76 243.749 132.35V132.3C243.749 131.71 243.579 131.26 243.229 130.93C242.879 130.61 242.379 130.45 241.719 130.45C241.029 130.45 240.479 130.6 240.079 130.9C239.679 131.2 239.399 131.56 239.259 131.97L236.619 131.59C236.929 130.5 237.539 129.67 238.449 129.11C239.359 128.55 240.439 128.27 241.699 128.27C242.269 128.27 242.849 128.34 243.419 128.47C243.989 128.61 244.519 128.83 244.989 129.14C245.459 129.45 245.849 129.87 246.139 130.41C246.429 130.95 246.569 131.6 246.569 132.39V140.42H243.849V138.77H243.759C243.509 139.28 243.089 139.72 242.509 140.09C241.929 140.46 241.179 140.66 240.229 140.66L240.239 140.69ZM240.969 138.61C241.819 138.61 242.499 138.37 242.999 137.88C243.499 137.39 243.749 136.81 243.749 136.15V134.74C243.629 134.84 243.409 134.93 243.089 135C242.769 135.08 242.429 135.14 242.069 135.19C241.709 135.24 241.409 135.29 241.159 135.32C240.529 135.41 239.999 135.58 239.579 135.84C239.159 136.1 238.949 136.5 238.949 137.04C238.949 137.58 239.139 137.95 239.519 138.22C239.899 138.49 240.379 138.62 240.969 138.62V138.61Z" fill="#4C4B4B"/>
<path d="M249.58 140.44V128.44H252.28V130.48H252.42C252.67 129.8 253.08 129.26 253.66 128.87C254.24 128.48 254.93 128.28 255.73 128.28C256.53 128.28 257.22 128.48 257.78 128.87C258.34 129.26 258.74 129.8 258.97 130.48H259.09C259.36 129.81 259.8 129.28 260.44 128.88C261.08 128.48 261.82 128.28 262.69 128.28C263.79 128.28 264.69 128.63 265.39 129.33C266.09 130.03 266.44 131.05 266.44 132.38V140.43H263.6V132.81C263.6 132.07 263.4 131.52 263.01 131.17C262.61 130.82 262.13 130.65 261.56 130.65C260.88 130.65 260.35 130.86 259.96 131.29C259.58 131.71 259.39 132.27 259.39 132.94V140.42H256.62V132.69C256.62 132.07 256.43 131.58 256.06 131.21C255.69 130.84 255.2 130.66 254.6 130.66C254 130.66 253.47 130.89 253.04 131.34C252.61 131.8 252.4 132.39 252.4 133.13V140.43H249.57L249.58 140.44Z" fill="#4C4B4B"/>
<path d="M269.609 140.44V124.44H272.439V130.42H272.559C272.709 130.13 272.909 129.82 273.169 129.49C273.429 129.16 273.789 128.88 274.249 128.64C274.709 128.4 275.289 128.28 275.989 128.28C276.919 128.28 277.749 128.52 278.499 128.99C279.249 129.46 279.839 130.16 280.279 131.08C280.719 132 280.939 133.12 280.939 134.46C280.939 135.8 280.719 136.9 280.289 137.82C279.859 138.74 279.269 139.44 278.519 139.93C277.769 140.42 276.929 140.66 275.989 140.66C275.299 140.66 274.729 140.55 274.279 140.32C273.829 140.09 273.459 139.81 273.189 139.49C272.919 139.16 272.699 138.86 272.549 138.56H272.389V140.45H269.609V140.44ZM272.379 134.44C272.379 135.6 272.629 136.54 273.109 137.26C273.599 137.98 274.289 138.33 275.199 138.33C276.109 138.33 276.839 137.96 277.319 137.23C277.799 136.5 278.049 135.57 278.049 134.44C278.049 133.31 277.809 132.4 277.329 131.68C276.849 130.96 276.139 130.6 275.199 130.6C274.259 130.6 273.589 130.95 273.109 131.64C272.629 132.33 272.379 133.27 272.379 134.43V134.44Z" fill="#4C4B4B"/>
<path d="M284.929 126.74C284.479 126.74 284.089 126.59 283.769 126.29C283.449 125.99 283.289 125.63 283.289 125.21C283.289 124.79 283.449 124.42 283.769 124.12C284.089 123.82 284.479 123.67 284.929 123.67C285.379 123.67 285.759 123.82 286.079 124.12C286.399 124.42 286.559 124.78 286.559 125.21C286.559 125.64 286.399 125.99 286.079 126.29C285.759 126.59 285.379 126.74 284.929 126.74ZM283.509 140.44V128.44H286.339V140.44H283.509Z" fill="#4C4B4B"/>
<path d="M294.631 140.68C293.461 140.68 292.441 140.42 291.581 139.91C290.721 139.4 290.061 138.67 289.581 137.74C289.101 136.81 288.871 135.73 288.871 134.49C288.871 133.25 289.111 132.17 289.581 131.24C290.051 130.31 290.721 129.59 291.581 129.07C292.441 128.55 293.461 128.29 294.631 128.29C295.801 128.29 296.821 128.55 297.681 129.07C298.541 129.59 299.211 130.31 299.681 131.24C300.151 132.17 300.381 133.25 300.381 134.49C300.381 135.73 300.151 136.81 299.681 137.74C299.211 138.67 298.551 139.39 297.681 139.91C296.811 140.43 295.801 140.68 294.631 140.68ZM294.651 138.41C295.291 138.41 295.821 138.24 296.251 137.89C296.671 137.54 296.991 137.07 297.201 136.47C297.411 135.87 297.521 135.21 297.521 134.48C297.521 133.75 297.411 133.08 297.201 132.48C296.991 131.88 296.671 131.41 296.251 131.05C295.831 130.7 295.291 130.52 294.651 130.52C294.011 130.52 293.471 130.7 293.041 131.05C292.611 131.4 292.291 131.88 292.081 132.48C291.871 133.08 291.761 133.74 291.761 134.48C291.761 135.22 291.871 135.87 292.081 136.47C292.291 137.07 292.621 137.54 293.041 137.89C293.471 138.24 294.011 138.41 294.651 138.41Z" fill="#4C4B4B"/>
</g>
<defs>
<clipPath id="clip0_281_2094">
<rect width="300.38" height="155.9" fill="white"/>
</clipPath>
</defs>
</svg>
