<svg width="108" height="47" viewBox="0 0 108 47" fill="none" xmlns="http://www.w3.org/2000/svg">
<path id="Vector" d="M103.437 9.39949H32.4097V4.43658C32.4097 1.98722 30.4244 0 27.9773 0H18.5199C16.0728 0 14.0874 1.98722 14.0874 4.43658V9.39949H9.10346C6.6692 9.39949 4.69666 11.3739 4.69666 13.8104V18.799C2.10336 18.799 0 20.9043 0 23.5C0 26.0957 2.10336 28.201 4.69666 28.201V33.187C4.69666 35.6261 6.67176 37.6031 9.10859 37.6031H14.09V42.5583C14.09 45.0128 16.0779 47.0026 18.5301 47.0026H27.9722C30.4244 47.0026 32.4123 45.0128 32.4123 42.5583V37.6031H103.439C105.961 37.6031 108.003 35.5568 108.003 33.0356V13.9696C108.003 11.4458 105.958 9.40205 103.439 9.40205L103.437 9.39949Z" fill="white"/>
</svg>
