<svg width="12" height="12" viewBox="0 0 12 12" fill="none" xmlns="http://www.w3.org/2000/svg">
<g id="&#240;&#159;&#166;&#134; icon &#34;instagram fill icon&#34;">
<path id="Vector" fill-rule="evenodd" clip-rule="evenodd" d="M8.47367 0.036C7.83367 0.00666545 7.62967 0 6 0C4.37002 0 4.16634 0.00699817 3.52669 0.036C2.88769 0.0650018 2.45133 0.166669 2.06967 0.315C1.66936 0.465715 1.30675 0.701858 1.00702 1.007C0.701837 1.30669 0.465653 1.66934 0.315 2.06967C0.16669 2.45133 0.0653448 2.88767 0.0359993 3.52633C0.00665379 4.16633 0 4.37033 0 6C0 7.62965 0.00698185 7.83366 0.0359993 8.47369C0.0650177 9.11231 0.16669 9.54867 0.315 9.93033C0.468327 10.3247 0.673691 10.6597 1.00702 10.993C1.30669 11.2982 1.66936 11.5343 2.06967 11.685C2.45133 11.8333 2.88769 11.9347 3.52631 11.964C4.16634 11.9933 4.37035 12 6 12C7.62967 12 7.83367 11.993 8.47367 11.964C9.11233 11.935 9.54867 11.8333 9.93033 11.685C10.3247 11.5317 10.6597 11.3263 10.993 10.993C11.2982 10.6933 11.5344 10.3306 11.685 9.93033C11.8333 9.54867 11.9347 9.11231 11.964 8.47369C11.9933 7.83366 12 7.62998 12 6C12 4.37 11.993 4.16633 11.964 3.52667C11.935 2.88767 11.8333 2.45133 11.685 2.06967C11.5343 1.66937 11.2981 1.30673 10.993 1.007C10.6933 0.701804 10.3307 0.465644 9.93033 0.315C9.54867 0.166669 9.11233 0.0653345 8.47367 0.036ZM3.57535 1.116C4.20802 1.08733 4.398 1.081 6 1.081C7.602 1.081 7.792 1.08733 8.42467 1.116C9.00967 1.14267 9.32733 1.24033 9.53867 1.32267C9.81867 1.43133 10.0187 1.56133 10.2287 1.77133C10.4383 1.98133 10.5687 2.18133 10.6773 2.46133C10.7597 2.67267 10.8573 2.99033 10.884 3.57533C10.9127 4.208 10.919 4.398 10.919 6C10.919 7.602 10.9127 7.79198 10.884 8.42465C10.8573 9.00965 10.7597 9.32733 10.6773 9.53869C10.5812 9.79931 10.4279 10.0351 10.2287 10.2287C10.0351 10.4279 9.7993 10.5812 9.53867 10.6773C9.32733 10.7597 9.00967 10.8573 8.42467 10.884C7.792 10.9127 7.60233 10.919 6 10.919C4.39767 10.919 4.20802 10.9127 3.57535 10.884C2.99035 10.8573 2.67267 10.7597 2.46131 10.6773C2.18133 10.5687 1.98131 10.4387 1.77131 10.2287C1.57211 10.0351 1.41878 9.79931 1.32267 9.53869C1.24031 9.32733 1.14267 9.00965 1.116 8.42465C1.08731 7.79198 1.08098 7.602 1.08098 6C1.08098 4.398 1.08731 4.208 1.116 3.57533C1.14267 2.99033 1.24031 2.67267 1.32267 2.46133C1.43133 2.18133 1.56131 1.98133 1.77131 1.77133C1.98131 1.56167 2.18133 1.43133 2.46131 1.32267C2.67267 1.24033 2.99035 1.14267 3.57535 1.116ZM6.76609 7.84958C6.5232 7.95022 6.26291 8.00198 6 8.00198C5.469 8.00198 4.95982 7.79105 4.58438 7.41562C4.20889 7.04018 3.99796 6.53095 3.99796 6C3.99796 5.46905 4.20889 4.95982 4.58438 4.58437C4.95982 4.20892 5.469 3.998 6 3.998C6.26291 3.998 6.5232 4.04978 6.76609 4.15039C7.00904 4.251 7.22971 4.39846 7.41561 4.58437C7.60151 4.77027 7.74898 4.99096 7.84959 5.23385C7.9502 5.47675 8.00198 5.73709 8.00198 6C8.00198 6.26291 7.9502 6.52325 7.84959 6.76615C7.74898 7.00904 7.60151 7.22973 7.41561 7.41562C7.22971 7.60151 7.00904 7.749 6.76609 7.84958ZM8.1807 3.81928C7.60234 3.24092 6.81791 2.91599 6 2.91599C5.18204 2.91599 4.39762 3.24092 3.81927 3.81928C3.24093 4.39764 2.916 5.18209 2.916 6C2.916 6.81791 3.24093 7.60233 3.81927 8.18073C4.39762 8.75907 5.18204 9.084 6 9.084C6.81791 9.084 7.60234 8.75907 8.1807 8.18073C8.75906 7.60233 9.08398 6.81791 9.08398 6C9.08398 5.18209 8.75906 4.39764 8.1807 3.81928ZM2.23216 3.37548C2.09547 3.23876 2.01867 3.05334 2.01867 2.86C2.01867 2.66665 2.09547 2.48123 2.23216 2.34452C2.36891 2.2078 2.55431 2.131 2.74767 2.131C2.94098 2.131 3.12644 2.2078 3.26313 2.34452C3.39987 2.48123 3.47667 2.66665 3.47667 2.86C3.47667 3.05334 3.39987 3.23876 3.26313 3.37548C3.12644 3.51219 2.94098 3.589 2.74767 3.589C2.55431 3.589 2.36891 3.51219 2.23216 3.37548Z" fill="white"/>
</g>
</svg>
